<svg xmlns="http://www.w3.org/2000/svg" viewBox="0 0 183.18 96.61"><defs><style>.cls-1{fill:#78a3d6;}.cls-2{fill:none;}.cls-3{fill:#fff;}</style></defs><g id="Layer_2" data-name="Layer 2"><g id="Layer_6" data-name="Layer 6"><path class="cls-1" d="M105.52,69.23c-3.38,4-5.12,4.61-8.38,5.7s-19.92.87-19.92.87V66s10.91.12,13-.43S93,64.94,94.91,63s1.86-5.28,1.86-5.28h12.14S109.28,64.76,105.52,69.23Z"/><path class="cls-1" d="M108.91,56.45H96.77s.07-3.3-1.86-5.28-2.68-2-4.73-2.58-13-.44-13-.44V38.34s16.65-.22,19.92.87,5,1.69,8.38,5.7C109.28,49.38,108.91,56.45,108.91,56.45Z"/><rect class="cls-1" x="64.26" y="38.34" width="11.75" height="58.27"/><polygon class="cls-1" points="90.98 0 90.98 11.59 51.76 26.53 17.26 39.67 17.25 39.67 5.52 44.14 0 46.24 0 34.66 90.98 0"/><polygon class="cls-1" points="183.18 34.79 183.18 46.37 92.2 11.62 92.2 0.04 183.18 34.79"/><polygon class="cls-1" points="125.09 38.32 125.09 67.36 113.28 93.93 113.28 38.32 125.09 38.32"/><polygon class="cls-1" points="144.58 53.08 125.13 96.61 113.43 96.61 125.09 70.36 134.57 49.05 138.68 39.84 144.58 53.08"/><polygon class="cls-1" points="164.21 67.53 164.21 93.72 145.28 51.51 139.36 38.32 151.17 38.32 164.21 67.53"/><polygon class="cls-1" points="177.19 96.61 165.51 96.61 165.44 96.44 165.44 40.92 177.17 45.39 177.19 96.61"/><polygon class="cls-1" points="165.51 96.61 165.44 96.61 165.44 96.44 165.51 96.61"/><polygon class="cls-1" points="17.25 40.93 17.25 96.61 5.5 96.61 5.52 45.39 17.25 40.93"/><polygon class="cls-1" points="25.69 70.52 26.83 69.34 26.83 69.33 33.7 62.23 33.86 62.08 56.85 38.32 40.8 38.32 18.48 62.96 18.48 77.94 25.69 70.52"/><polygon class="cls-1" points="33.86 62.08 33.7 62.23 26.73 69.16 26.83 69.33 33.86 62.08"/><polygon class="cls-1" points="58.05 96.61 42.83 96.61 27.48 70.43 35.59 62.08 58.05 96.61"/><line class="cls-2" x1="25.69" y1="70.52" x2="18.48" y2="77.94"/><polygon class="cls-3" points="51.76 26.53 17.26 39.67 17.25 39.67 5.52 44.14 0 46.24 0 46.19 51.74 26.48 51.76 26.53"/><polygon class="cls-3" points="138.69 39.78 138.67 39.81 138.64 39.76 138.69 39.78"/><polygon class="cls-3" points="138.69 39.78 138.67 39.81 138.64 39.76 138.69 39.78"/></g></g></svg>