<svg xmlns="http://www.w3.org/2000/svg" viewBox="0 0 252 144"><defs><style>.cls-1{fill:#78a3d6;}.cls-2{fill:#283277;}.cls-3{fill:none;}.cls-4{fill:#fff;}</style></defs><g id="Layer_5" data-name="Layer 5"><path class="cls-1" d="M141.41,87.82c-3.76,4.45-5.69,5.13-9.32,6.34s-22.14,1-22.14,1V84.21s12.13.13,14.4-.48,3.11-.68,5.26-2.88S131.68,75,131.68,75h13.5S145.59,82.85,141.41,87.82Z"/><path class="cls-1" d="M145.18,73.62h-13.5s.08-3.67-2.07-5.87-3-2.26-5.26-2.87-14.4-.49-14.4-.49V53.48s18.51-.24,22.14,1,5.56,1.88,9.32,6.34C145.59,65.76,145.18,73.62,145.18,73.62Z"/><rect class="cls-1" x="95.54" y="53.48" width="13.06" height="64.78"/><polygon class="cls-2" points="125.24 10.86 125.24 23.74 81.64 40.35 43.29 54.96 43.28 54.96 30.24 59.93 24.1 62.27 24.1 49.39 125.24 10.86"/><polygon class="cls-2" points="227.74 49.54 227.74 62.41 126.6 23.78 126.6 10.9 227.74 49.54"/><polygon class="cls-1" points="163.17 53.46 163.17 85.74 150.04 115.28 150.04 53.46 163.17 53.46"/><polygon class="cls-1" points="184.83 69.87 163.21 118.26 150.2 118.26 163.17 89.08 173.7 65.39 178.27 55.15 184.83 69.87"/><polygon class="cls-1" points="206.66 85.94 206.66 115.05 185.61 68.12 179.03 53.46 192.16 53.46 206.66 85.94"/><polygon class="cls-2" points="221.09 118.26 208.1 118.26 208.02 118.08 208.02 56.35 221.06 61.32 221.09 118.26"/><polygon class="cls-2" points="208.1 118.26 208.02 118.26 208.02 118.08 208.1 118.26"/><polygon class="cls-2" points="43.28 56.36 43.28 118.26 30.21 118.26 30.24 61.32 43.28 56.36"/><polygon class="cls-1" points="52.66 89.26 53.93 87.95 53.93 87.94 61.57 80.04 61.74 79.87 87.3 53.46 69.46 53.46 44.64 80.85 44.64 97.51 52.66 89.26"/><polygon class="cls-1" points="61.74 79.87 61.57 80.04 53.82 87.75 53.93 87.94 61.74 79.87"/><polygon class="cls-1" points="88.63 118.26 71.71 118.26 54.65 89.16 63.67 79.88 88.63 118.26"/><line class="cls-3" x1="52.66" y1="89.26" x2="44.64" y2="97.51"/><polygon class="cls-4" points="81.64 40.35 43.29 54.96 43.28 54.96 30.24 59.93 24.1 62.27 24.1 62.21 81.62 40.3 81.64 40.35"/><polygon class="cls-4" points="178.28 55.08 178.26 55.12 178.23 55.06 178.28 55.08"/><polygon class="cls-4" points="178.28 55.08 178.26 55.12 178.23 55.06 178.28 55.08"/><path class="cls-2" d="M35.71,123.85a1.86,1.86,0,0,0-.24-.54,2,2,0,0,0-.44-.43,2.29,2.29,0,0,0-.61-.29,2.48,2.48,0,0,0-.73-.11,2.76,2.76,0,0,0-1,.18,2.11,2.11,0,0,0-.77.54,2.39,2.39,0,0,0-.49.89,3.81,3.81,0,0,0-.17,1.23,3.91,3.91,0,0,0,.17,1.24,2.43,2.43,0,0,0,.49.9,2.13,2.13,0,0,0,.77.55,2.66,2.66,0,0,0,1,.19,2.36,2.36,0,0,0,1.37-.38,1.6,1.6,0,0,0,.67-1.08h.48a2.11,2.11,0,0,1-.83,1.42,2.65,2.65,0,0,1-.75.38,3.48,3.48,0,0,1-.93.12,3,3,0,0,1-1.22-.23,2.57,2.57,0,0,1-.92-.67A3,3,0,0,1,31,126.7a4.25,4.25,0,0,1-.21-1.38A4.15,4.15,0,0,1,31,124a2.86,2.86,0,0,1,.59-1,2.44,2.44,0,0,1,.92-.66,3,3,0,0,1,1.22-.24,2.84,2.84,0,0,1,.88.14,2.41,2.41,0,0,1,.75.38,2.25,2.25,0,0,1,.57.58,2.12,2.12,0,0,1,.31.74Z"/><path class="cls-2" d="M52.77,122a3,3,0,0,1,1.21.24,2.69,2.69,0,0,1,1,.67,3,3,0,0,1,.63,1,3.92,3.92,0,0,1,.22,1.36,4,4,0,0,1-.22,1.36,3.21,3.21,0,0,1-.63,1.06,2.71,2.71,0,0,1-.95.68,3.25,3.25,0,0,1-2.45,0,2.71,2.71,0,0,1-.95-.68,3.11,3.11,0,0,1-.63-1.06A4.34,4.34,0,0,1,50,124a3.12,3.12,0,0,1,.63-1,2.79,2.79,0,0,1,1-.66A3.05,3.05,0,0,1,52.77,122Zm0,6.19a2.8,2.8,0,0,0,1-.19,2.27,2.27,0,0,0,.8-.56,2.48,2.48,0,0,0,.53-.91,3.55,3.55,0,0,0,.19-1.22,3.51,3.51,0,0,0-.19-1.22,2.54,2.54,0,0,0-.53-.89,2.1,2.1,0,0,0-.8-.54,2.51,2.51,0,0,0-1-.19,2.8,2.8,0,0,0-1,.19,2.38,2.38,0,0,0-.81.55,2.45,2.45,0,0,0-.53.89,3.45,3.45,0,0,0-.19,1.21,3.55,3.55,0,0,0,.19,1.22,2.61,2.61,0,0,0,.52.91,2.31,2.31,0,0,0,.81.56A2.75,2.75,0,0,0,52.76,128.2Z"/><path class="cls-2" d="M74.52,128.55h-.61L70,122.69v5.86h-.47v-6.42h.65L74.05,128v-5.85h.47Z"/><path class="cls-2" d="M93,122.6H90.75v6h-.47v-6H88.06v-.47H93Z"/><path class="cls-2" d="M111.73,128.55h-.52l-.64-1.71a3.22,3.22,0,0,0-.21-.46,1.5,1.5,0,0,0-.26-.38,1.07,1.07,0,0,0-.35-.25,1,1,0,0,0-.46-.1H107v2.9h-.46v-6.42h2.88a5.16,5.16,0,0,1,.79.07,1.89,1.89,0,0,1,.67.27,1.29,1.29,0,0,1,.47.51,1.78,1.78,0,0,1,.18.85,2.23,2.23,0,0,1-.08.6,1.43,1.43,0,0,1-.65.87,1.73,1.73,0,0,1-.59.23,1.35,1.35,0,0,1,.3.27,2.47,2.47,0,0,1,.21.27q.08.15.15.33c0,.11.09.25.15.4ZM107,125.18h2.23a3.92,3.92,0,0,0,.82-.07,1.25,1.25,0,0,0,.55-.23.92.92,0,0,0,.33-.42,1.65,1.65,0,0,0,.11-.63,1.07,1.07,0,0,0-.42-1,2.25,2.25,0,0,0-1.25-.28H107Z"/><path class="cls-2" d="M130.66,128.55h-.56l-.79-2.07h-3.15l-.37,1c-.14.36-.26.71-.38,1h-.5l.62-1.63c.21-.53.41-1.06.61-1.59s.41-1,.62-1.58l.62-1.62H128Zm-1.48-2.43-1.49-3.57-1.41,3.57Z"/><path class="cls-2" d="M148.75,123.85a1.45,1.45,0,0,0-.24-.54,1.64,1.64,0,0,0-.44-.43,2.09,2.09,0,0,0-.6-.29,2.55,2.55,0,0,0-.74-.11,2.71,2.71,0,0,0-1,.18,2.11,2.11,0,0,0-.77.54,2.39,2.39,0,0,0-.49.89,3.8,3.8,0,0,0-.18,1.23,3.9,3.9,0,0,0,.18,1.24,2.43,2.43,0,0,0,.49.9,2.13,2.13,0,0,0,.77.55,2.61,2.61,0,0,0,1,.19,2.37,2.37,0,0,0,1.38-.38,1.55,1.55,0,0,0,.66-1.08h.49a2.18,2.18,0,0,1-.29.81,2,2,0,0,1-.54.61,2.58,2.58,0,0,1-.76.38,3.36,3.36,0,0,1-.92.12,3,3,0,0,1-1.23-.23,2.66,2.66,0,0,1-.92-.67,2.93,2.93,0,0,1-.58-1.06,4.25,4.25,0,0,1-.21-1.38A4.15,4.15,0,0,1,144,124a2.72,2.72,0,0,1,.59-1,2.44,2.44,0,0,1,.92-.66,3,3,0,0,1,1.22-.24,2.84,2.84,0,0,1,.88.14,2.41,2.41,0,0,1,.75.38,2.21,2.21,0,0,1,.56.58,2,2,0,0,1,.32.74Z"/><path class="cls-2" d="M167.51,122.6h-2.24v6h-.47v-6h-2.22v-.47h4.93Z"/><path class="cls-2" d="M181.77,128.55h-.47v-6.42h.47Z"/><path class="cls-2" d="M201,128.55h-.62l-3.91-5.86v5.86H196v-6.42h.65l3.88,5.85v-5.85H201Z"/><path class="cls-2" d="M217.82,128.66a3.13,3.13,0,0,1-1.25-.24,2.76,2.76,0,0,1-1-.67,3.11,3.11,0,0,1-.63-1.06,4.23,4.23,0,0,1-.22-1.37A3.9,3.9,0,0,1,215,124a2.91,2.91,0,0,1,.62-1,2.66,2.66,0,0,1,1-.66,3.07,3.07,0,0,1,1.23-.24,3.41,3.41,0,0,1,1,.14,2.67,2.67,0,0,1,.82.37,2.33,2.33,0,0,1,.59.58,2.05,2.05,0,0,1,.32.76H220a1.25,1.25,0,0,0-.23-.53,1.76,1.76,0,0,0-.46-.44,3,3,0,0,0-.67-.3,3.16,3.16,0,0,0-.84-.11,2.86,2.86,0,0,0-1,.18,2.38,2.38,0,0,0-.81.55,2.44,2.44,0,0,0-.52.89,3.51,3.51,0,0,0-.19,1.22,3.55,3.55,0,0,0,.19,1.22,2.61,2.61,0,0,0,.52.91,2.4,2.4,0,0,0,.81.56,2.91,2.91,0,0,0,1,.19,3.06,3.06,0,0,0,1.39-.31,2.85,2.85,0,0,0,1-.84v-1.16h-1.77v-.47h2.23v3.13h-.27l-.2-.86a2.65,2.65,0,0,1-.49.46,2.55,2.55,0,0,1-.57.29,2.66,2.66,0,0,1-.63.17A3.78,3.78,0,0,1,217.82,128.66Z"/></g></svg>